<mxfile host="app.diagrams.net" modified="2023-06-20T10:40:41.730Z" agent="Mozilla/5.0 (Windows NT 10.0; Win64; x64) AppleWebKit/537.36 (KHTML, like Gecko) Chrome/114.0.0.0 Safari/537.36" etag="MlB8Knkv44DDCkHzw6jn" version="21.5.0" type="github">
  <diagram name="Page-1" id="hiKW9OneHqPQTSh_ymxS">
    <mxGraphModel dx="797" dy="397" grid="1" gridSize="10" guides="1" tooltips="1" connect="1" arrows="1" fold="1" page="1" pageScale="1" pageWidth="1100" pageHeight="850" math="0" shadow="0">
      <root>
        <mxCell id="0" />
        <mxCell id="1" parent="0" />
        <mxCell id="YPII3gAo9mIys5MfFpnn-56" value="" style="edgeStyle=orthogonalEdgeStyle;rounded=0;orthogonalLoop=1;jettySize=auto;html=1;" edge="1" parent="1" source="YPII3gAo9mIys5MfFpnn-2" target="YPII3gAo9mIys5MfFpnn-3">
          <mxGeometry relative="1" as="geometry" />
        </mxCell>
        <mxCell id="YPII3gAo9mIys5MfFpnn-2" value="Stop services:&lt;br&gt;1. main.py&lt;br&gt;2. reports&lt;br&gt;3. process.py&lt;br&gt;and all related to payload, except inject_payload.py" style="rounded=1;whiteSpace=wrap;html=1;absoluteArcSize=1;arcSize=14;strokeWidth=2;" vertex="1" parent="1">
          <mxGeometry x="400" y="100" width="280" height="80" as="geometry" />
        </mxCell>
        <mxCell id="YPII3gAo9mIys5MfFpnn-57" value="" style="edgeStyle=orthogonalEdgeStyle;rounded=0;orthogonalLoop=1;jettySize=auto;html=1;" edge="1" parent="1" source="YPII3gAo9mIys5MfFpnn-3" target="YPII3gAo9mIys5MfFpnn-7">
          <mxGeometry relative="1" as="geometry" />
        </mxCell>
        <mxCell id="YPII3gAo9mIys5MfFpnn-65" style="edgeStyle=orthogonalEdgeStyle;rounded=0;orthogonalLoop=1;jettySize=auto;html=1;entryX=1;entryY=0.5;entryDx=0;entryDy=0;exitX=1;exitY=0.5;exitDx=0;exitDy=0;exitPerimeter=0;" edge="1" parent="1" source="YPII3gAo9mIys5MfFpnn-3" target="YPII3gAo9mIys5MfFpnn-2">
          <mxGeometry relative="1" as="geometry">
            <Array as="points">
              <mxPoint x="700" y="240" />
              <mxPoint x="700" y="140" />
            </Array>
          </mxGeometry>
        </mxCell>
        <mxCell id="YPII3gAo9mIys5MfFpnn-3" value="Is it stopped?" style="strokeWidth=2;html=1;shape=mxgraph.flowchart.decision;whiteSpace=wrap;" vertex="1" parent="1">
          <mxGeometry x="490" y="200" width="100" height="80" as="geometry" />
        </mxCell>
        <mxCell id="YPII3gAo9mIys5MfFpnn-58" value="" style="edgeStyle=orthogonalEdgeStyle;rounded=0;orthogonalLoop=1;jettySize=auto;html=1;" edge="1" parent="1" source="YPII3gAo9mIys5MfFpnn-7" target="YPII3gAo9mIys5MfFpnn-9">
          <mxGeometry relative="1" as="geometry" />
        </mxCell>
        <mxCell id="YPII3gAo9mIys5MfFpnn-7" value="Create migration table file -&amp;gt; iot-web/database/migrations&lt;br&gt;Data must be include file done and pending and&amp;nbsp;&lt;br&gt;match file name with class name and it&#39;s component" style="shape=parallelogram;html=1;strokeWidth=2;perimeter=parallelogramPerimeter;whiteSpace=wrap;rounded=1;arcSize=12;size=0.23;" vertex="1" parent="1">
          <mxGeometry x="307.5" y="305" width="465" height="95" as="geometry" />
        </mxCell>
        <mxCell id="YPII3gAo9mIys5MfFpnn-20" value="" style="edgeStyle=orthogonalEdgeStyle;rounded=0;orthogonalLoop=1;jettySize=auto;html=1;" edge="1" parent="1" source="YPII3gAo9mIys5MfFpnn-9" target="YPII3gAo9mIys5MfFpnn-19">
          <mxGeometry relative="1" as="geometry" />
        </mxCell>
        <mxCell id="YPII3gAo9mIys5MfFpnn-9" value="It is conform?" style="strokeWidth=2;html=1;shape=mxgraph.flowchart.decision;whiteSpace=wrap;" vertex="1" parent="1">
          <mxGeometry x="490" y="420" width="100" height="80" as="geometry" />
        </mxCell>
        <mxCell id="YPII3gAo9mIys5MfFpnn-22" value="" style="edgeStyle=orthogonalEdgeStyle;rounded=0;orthogonalLoop=1;jettySize=auto;html=1;" edge="1" parent="1" source="YPII3gAo9mIys5MfFpnn-19" target="YPII3gAo9mIys5MfFpnn-21">
          <mxGeometry relative="1" as="geometry" />
        </mxCell>
        <mxCell id="YPII3gAo9mIys5MfFpnn-19" value="in terminal, directory iot-data-visualization&lt;br&gt;execute php artisan migrate" style="verticalLabelPosition=middle;verticalAlign=middle;html=1;shape=trapezoid;perimeter=trapezoidPerimeter;whiteSpace=wrap;size=0.23;arcSize=10;flipV=1;labelPosition=center;align=center;" vertex="1" parent="1">
          <mxGeometry x="395" y="520" width="290" height="80" as="geometry" />
        </mxCell>
        <mxCell id="YPII3gAo9mIys5MfFpnn-26" style="edgeStyle=orthogonalEdgeStyle;rounded=0;orthogonalLoop=1;jettySize=auto;html=1;entryX=0.5;entryY=1;entryDx=0;entryDy=0;" edge="1" parent="1" source="YPII3gAo9mIys5MfFpnn-21" target="YPII3gAo9mIys5MfFpnn-25">
          <mxGeometry relative="1" as="geometry" />
        </mxCell>
        <mxCell id="YPII3gAo9mIys5MfFpnn-59" value="" style="edgeStyle=orthogonalEdgeStyle;rounded=0;orthogonalLoop=1;jettySize=auto;html=1;" edge="1" parent="1" source="YPII3gAo9mIys5MfFpnn-21" target="YPII3gAo9mIys5MfFpnn-28">
          <mxGeometry relative="1" as="geometry" />
        </mxCell>
        <mxCell id="YPII3gAo9mIys5MfFpnn-21" value="Process running well?" style="strokeWidth=2;html=1;shape=mxgraph.flowchart.decision;whiteSpace=wrap;" vertex="1" parent="1">
          <mxGeometry x="465" y="620" width="150" height="80" as="geometry" />
        </mxCell>
        <mxCell id="YPII3gAo9mIys5MfFpnn-55" value="" style="edgeStyle=orthogonalEdgeStyle;rounded=0;orthogonalLoop=1;jettySize=auto;html=1;" edge="1" parent="1" source="YPII3gAo9mIys5MfFpnn-23" target="YPII3gAo9mIys5MfFpnn-2">
          <mxGeometry relative="1" as="geometry" />
        </mxCell>
        <mxCell id="YPII3gAo9mIys5MfFpnn-23" value="Start" style="strokeWidth=2;html=1;shape=mxgraph.flowchart.start_1;whiteSpace=wrap;" vertex="1" parent="1">
          <mxGeometry x="480" y="20" width="120" height="60" as="geometry" />
        </mxCell>
        <mxCell id="YPII3gAo9mIys5MfFpnn-27" style="edgeStyle=orthogonalEdgeStyle;rounded=0;orthogonalLoop=1;jettySize=auto;html=1;entryX=1;entryY=0.75;entryDx=0;entryDy=0;" edge="1" parent="1" source="YPII3gAo9mIys5MfFpnn-25" target="YPII3gAo9mIys5MfFpnn-7">
          <mxGeometry relative="1" as="geometry">
            <Array as="points">
              <mxPoint x="780" y="369" />
            </Array>
          </mxGeometry>
        </mxCell>
        <mxCell id="YPII3gAo9mIys5MfFpnn-25" value="Make sure not continuing to next process" style="rounded=1;whiteSpace=wrap;html=1;absoluteArcSize=1;arcSize=14;strokeWidth=2;" vertex="1" parent="1">
          <mxGeometry x="685" y="570" width="160" height="70" as="geometry" />
        </mxCell>
        <mxCell id="YPII3gAo9mIys5MfFpnn-60" value="" style="edgeStyle=orthogonalEdgeStyle;rounded=0;orthogonalLoop=1;jettySize=auto;html=1;" edge="1" parent="1" source="YPII3gAo9mIys5MfFpnn-28" target="YPII3gAo9mIys5MfFpnn-31">
          <mxGeometry relative="1" as="geometry" />
        </mxCell>
        <mxCell id="YPII3gAo9mIys5MfFpnn-28" value="Backup database" style="strokeWidth=2;html=1;shape=mxgraph.flowchart.database;whiteSpace=wrap;" vertex="1" parent="1">
          <mxGeometry x="480" y="720" width="120" height="60" as="geometry" />
        </mxCell>
        <mxCell id="YPII3gAo9mIys5MfFpnn-61" value="" style="edgeStyle=orthogonalEdgeStyle;rounded=0;orthogonalLoop=1;jettySize=auto;html=1;" edge="1" parent="1" source="YPII3gAo9mIys5MfFpnn-31" target="YPII3gAo9mIys5MfFpnn-34">
          <mxGeometry relative="1" as="geometry" />
        </mxCell>
        <mxCell id="YPII3gAo9mIys5MfFpnn-31" value="Test import backed db&lt;br&gt;not replace" style="strokeWidth=2;html=1;shape=mxgraph.flowchart.database;whiteSpace=wrap;" vertex="1" parent="1">
          <mxGeometry x="475.5" y="800" width="129.25" height="60" as="geometry" />
        </mxCell>
        <mxCell id="YPII3gAo9mIys5MfFpnn-62" value="" style="edgeStyle=orthogonalEdgeStyle;rounded=0;orthogonalLoop=1;jettySize=auto;html=1;" edge="1" parent="1" source="YPII3gAo9mIys5MfFpnn-34" target="YPII3gAo9mIys5MfFpnn-36">
          <mxGeometry relative="1" as="geometry" />
        </mxCell>
        <mxCell id="YPII3gAo9mIys5MfFpnn-34" value="Any problem?" style="strokeWidth=2;html=1;shape=mxgraph.flowchart.decision;whiteSpace=wrap;" vertex="1" parent="1">
          <mxGeometry x="465" y="880" width="150" height="80" as="geometry" />
        </mxCell>
        <mxCell id="YPII3gAo9mIys5MfFpnn-63" value="" style="edgeStyle=orthogonalEdgeStyle;rounded=0;orthogonalLoop=1;jettySize=auto;html=1;" edge="1" parent="1" source="YPII3gAo9mIys5MfFpnn-36" target="YPII3gAo9mIys5MfFpnn-40">
          <mxGeometry relative="1" as="geometry" />
        </mxCell>
        <mxCell id="YPII3gAo9mIys5MfFpnn-36" value="Update date registration line, list line" style="strokeWidth=2;html=1;shape=mxgraph.flowchart.document2;whiteSpace=wrap;size=0.25;" vertex="1" parent="1">
          <mxGeometry x="455.13" y="980" width="170" height="90" as="geometry" />
        </mxCell>
        <mxCell id="YPII3gAo9mIys5MfFpnn-43" value="" style="edgeStyle=orthogonalEdgeStyle;rounded=0;orthogonalLoop=1;jettySize=auto;html=1;" edge="1" parent="1" source="YPII3gAo9mIys5MfFpnn-40" target="YPII3gAo9mIys5MfFpnn-41">
          <mxGeometry relative="1" as="geometry" />
        </mxCell>
        <mxCell id="YPII3gAo9mIys5MfFpnn-40" value="Make sure array of line number in process_payload_table_done.py is added" style="shape=parallelogram;html=1;strokeWidth=2;perimeter=parallelogramPerimeter;whiteSpace=wrap;rounded=1;arcSize=12;size=0.23;" vertex="1" parent="1">
          <mxGeometry x="365.13" y="1090" width="350" height="60" as="geometry" />
        </mxCell>
        <mxCell id="YPII3gAo9mIys5MfFpnn-64" value="" style="edgeStyle=orthogonalEdgeStyle;rounded=0;orthogonalLoop=1;jettySize=auto;html=1;" edge="1" parent="1" source="YPII3gAo9mIys5MfFpnn-41" target="YPII3gAo9mIys5MfFpnn-44">
          <mxGeometry relative="1" as="geometry" />
        </mxCell>
        <mxCell id="YPII3gAo9mIys5MfFpnn-41" value="Make sure array of line number in process_payload_table_pending.py is added" style="shape=parallelogram;html=1;strokeWidth=2;perimeter=parallelogramPerimeter;whiteSpace=wrap;rounded=1;arcSize=12;size=0.23;" vertex="1" parent="1">
          <mxGeometry x="365" y="1170" width="350" height="60" as="geometry" />
        </mxCell>
        <mxCell id="YPII3gAo9mIys5MfFpnn-47" value="" style="edgeStyle=orthogonalEdgeStyle;rounded=0;orthogonalLoop=1;jettySize=auto;html=1;" edge="1" parent="1" source="YPII3gAo9mIys5MfFpnn-44" target="YPII3gAo9mIys5MfFpnn-46">
          <mxGeometry relative="1" as="geometry" />
        </mxCell>
        <mxCell id="YPII3gAo9mIys5MfFpnn-44" value="Make sure array of line number in daily report&lt;br&gt;and monthly report is added" style="shape=parallelogram;html=1;strokeWidth=2;perimeter=parallelogramPerimeter;whiteSpace=wrap;rounded=1;arcSize=12;size=0.23;" vertex="1" parent="1">
          <mxGeometry x="357.5" y="1250" width="365" height="70" as="geometry" />
        </mxCell>
        <mxCell id="YPII3gAo9mIys5MfFpnn-49" value="" style="edgeStyle=orthogonalEdgeStyle;rounded=0;orthogonalLoop=1;jettySize=auto;html=1;" edge="1" parent="1" source="YPII3gAo9mIys5MfFpnn-46" target="YPII3gAo9mIys5MfFpnn-48">
          <mxGeometry relative="1" as="geometry" />
        </mxCell>
        <mxCell id="YPII3gAo9mIys5MfFpnn-46" value="Make sure array of line number in&lt;br&gt;main.py is added" style="shape=parallelogram;html=1;strokeWidth=2;perimeter=parallelogramPerimeter;whiteSpace=wrap;rounded=1;arcSize=12;size=0.23;" vertex="1" parent="1">
          <mxGeometry x="357.63" y="1340" width="365" height="60" as="geometry" />
        </mxCell>
        <mxCell id="YPII3gAo9mIys5MfFpnn-51" value="" style="edgeStyle=orthogonalEdgeStyle;rounded=0;orthogonalLoop=1;jettySize=auto;html=1;" edge="1" parent="1" source="YPII3gAo9mIys5MfFpnn-48" target="YPII3gAo9mIys5MfFpnn-50">
          <mxGeometry relative="1" as="geometry" />
        </mxCell>
        <mxCell id="YPII3gAo9mIys5MfFpnn-48" value="Edit inject_payload.py with pattern address&lt;br&gt;line that registered" style="shape=parallelogram;html=1;strokeWidth=2;perimeter=parallelogramPerimeter;whiteSpace=wrap;rounded=1;arcSize=12;size=0.23;" vertex="1" parent="1">
          <mxGeometry x="357.63" y="1420" width="365" height="60" as="geometry" />
        </mxCell>
        <mxCell id="YPII3gAo9mIys5MfFpnn-50" value="END" style="strokeWidth=2;html=1;shape=mxgraph.flowchart.terminator;whiteSpace=wrap;" vertex="1" parent="1">
          <mxGeometry x="490" y="1500" width="100" height="60" as="geometry" />
        </mxCell>
      </root>
    </mxGraphModel>
  </diagram>
</mxfile>
